<svg xmlns="http://www.w3.org/2000/svg" xmlns:xlink="http://www.w3.org/1999/xlink" xml:space="preserve" viewBox="0 0 948.802 1121.7257">
  <defs>
    <linearGradient id="a">
      <stop offset="0"/>
      <stop offset="1" stop-color="#e65"/>
    </linearGradient>
    <linearGradient xlink:href="#a" id="b" x1="187.254" x2="913.7787" y1="1121.287" y2="57.0369" gradientUnits="userSpaceOnUse"/>
  </defs>
  <path fill="url(#b)" d="M187.254 359.466v761.821l121.2185-66.328-.5025-733.914h-45.146c-21.143 18.639-47.018 32.35-75.57 38.421zm307.3465-38.4103h113.936v569.89l-113.936 62.29zm-148 0h113.936v650.81l-113.936 62.29zm294.2375-.0107v552.241l120.715-66v-447.82c-28.551-6.071-54.426-19.782-75.569-38.421zM773.155 0H175.648C78.795 0 0 78.796 0 175.649c0 84.072 68.397 152.47 152.47 152.47 37.999 0 75.245-17.18 100.039-45.938 19.657-22.798 31.664-52.363 32.016-84.675-.782-47.422-37.607-85.747-82.768-85.747-45.649 0-82.787 39.156-82.787 87.286h-35c0-67.429 52.839-122.286 117.787-122.286 12.085 0 23.749 1.902 34.733 5.428 37.09 11.907 66.086 42.656 77.492 79.694 12.303 39.952 2.858 85.104-18.404 120.3h357.646c-21.263-35.196-30.708-80.348-18.404-120.3 11.406-37.038 40.402-67.787 77.492-79.694 10.984-3.526 22.648-5.428 34.733-5.428 64.948 0 117.787 54.857 117.787 122.286h-35c0-48.13-37.138-87.286-82.787-87.286-45.161 0-81.986 38.325-82.768 85.747.352 32.312 12.359 61.877 32.016 84.675 24.795 28.759 62.04 45.938 100.039 45.938 84.072 0 152.47-68.397 152.47-152.47C948.803 78.796 870.008 0 773.155 0Z" paint-order="stroke fill markers"/>
</svg>
